<svg xmlns="http://www.w3.org/2000/svg" version="1.1" xmlns:xlink="http://www.w3.org/1999/xlink" xmlns:svgjs="http://svgjs.dev/svgjs" width="2000" height="328" viewBox="0 0 2000 328"><g transform="matrix(1,0,0,1,-1.2121212121213603,-0.7827565649815824)"><svg viewBox="0 0 396 65" data-background-color="#ffffff" preserveAspectRatio="xMidYMid meet" height="328" width="2000" xmlns="http://www.w3.org/2000/svg" xmlns:xlink="http://www.w3.org/1999/xlink"><g id="tight-bounds" transform="matrix(1,0,0,1,0.24000000000003752,0.15511944123110766)"><svg viewBox="0 0 395.5199999999999 64.68976111753777" height="64.68976111753777" width="395.5199999999999"><g><svg viewBox="0 0 581.6181766211088 95.12727777922083" height="64.68976111753777" width="395.5199999999999"><g><rect width="6.2074356595374836" height="69.17721719834799" x="411.76983156946983" y="12.975030290436422" fill="#2f455d" opacity="1" stroke-width="0" stroke="transparent" fill-opacity="1" class="rect-yte-0" data-fill-palette-color="primary" rx="1%" id="yte-0" data-palette-color="#2f455d"></rect></g><g transform="matrix(1,0,0,1,0,13.147112920283057)"><svg viewBox="0 0 395.52 68.83305193865472" height="68.83305193865472" width="395.52"><g id="textblocktransform"><svg viewBox="0 0 395.52 68.83305193865472" height="68.83305193865472" width="395.52" id="textblock"><g><svg viewBox="0 0 395.52 68.83305193865472" height="68.83305193865472" width="395.52"><g transform="matrix(1,0,0,1,0,0)"><svg width="395.52" viewBox="2.05 -35 201.09268656716418 35" height="68.83305193865472" data-palette-color="#2f455d"><g transform="matrix(1,0,0,1,0,0)"><g><svg width="12.641791044776122" viewBox="3.16 -36.36 60.540000000000006 36.87" height="7.7" data-palette-color="#2f455d" id="scriptelement" x="190.50089552238808" y="-35"><path d="M25.62-13.41L25.62-36.36 33.31-36.36 33.31-12.75Q33.31-8.77 31.42-5.79 29.53-2.81 26.14-1.15 22.75 0.51 18.24 0.51L18.24 0.51Q13.71 0.51 10.32-1.15 6.92-2.81 5.04-5.79 3.16-8.77 3.16-12.75L3.16-12.75 3.16-36.36 10.85-36.36 10.85-13.41Q10.85-11.33 11.76-9.71 12.68-8.1 14.35-7.17 16.02-6.25 18.24-6.25L18.24-6.25Q20.47-6.25 22.13-7.17 23.79-8.1 24.71-9.71 25.62-11.33 25.62-13.41L25.62-13.41ZM47.32 0L39.63 0 39.63-36.36 63.7-36.36 63.7-30.02 47.32-30.02 47.32-21.36 62.11-21.36 62.11-15.02 47.32-15.02 47.32 0Z" opacity="1" transform="matrix(1,0,0,1,0,0)" fill="#2f455d" class="undefined-123" data-fill-palette-color="primary" id="tk-123"></path></svg></g></g><path d="M2.05 0L2.05-35 7.55-35 7.55-20.75 13.45-20.75 13.45-35 18.95-35 18.95 0 13.45 0 13.45-15.75 7.55-15.75 7.55 0 2.05 0ZM21.6 0L27.3-35 34.75-35 40.45 0 34.95 0 33.95-6.95 33.95-6.85 27.7-6.85 26.7 0 21.6 0ZM28.35-11.6L33.3-11.6 30.85-28.9 30.75-28.9 28.35-11.6ZM43.09 0L43.09-35 50-35 55.34-14.05 55.45-14.05 55.45-35 60.34-35 60.34 0 54.7 0 48.09-25.55 48-25.55 48 0 43.09 0ZM64.44 0L64.44-35 72.84-35Q76.94-35 78.99-32.8 81.04-30.6 81.04-26.35L81.04-26.35 81.04-8.65Q81.04-4.4 78.99-2.2 76.94 0 72.84 0L72.84 0 64.44 0ZM69.94-5L72.74-5Q74.09-5 74.82-5.8 75.54-6.6 75.54-8.4L75.54-8.4 75.54-26.6Q75.54-28.4 74.82-29.2 74.09-30 72.74-30L72.74-30 69.94-30 69.94-5ZM88.89 0L88.89-14.9 82.24-35 88.09-35 91.84-22.15 91.94-22.15 95.69-35 101.04-35 94.39-14.9 94.39 0 88.89 0ZM111.54 0L111.54-35 117.04-35 117.04-20.75 122.94-20.75 122.94-35 128.44-35 128.44 0 122.94 0 122.94-15.75 117.04-15.75 117.04 0 111.54 0ZM132.53 0L132.53-35 147.53-35 147.53-30 138.03-30 138.03-20.75 145.58-20.75 145.58-15.75 138.03-15.75 138.03-5 147.53-5 147.53 0 132.53 0ZM150.68 0L150.68-35 156.18-35 156.18-5 165.23-5 165.23 0 150.68 0ZM167.88 0L167.88-35 175.98-35Q180.08-35 182.13-32.8 184.18-30.6 184.18-26.35L184.18-26.35 184.18-22.9Q184.18-18.65 182.13-16.45 180.08-14.25 175.98-14.25L175.98-14.25 173.38-14.25 173.38 0 167.88 0ZM173.38-19.25L175.98-19.25Q177.33-19.25 178-20 178.68-20.75 178.68-22.55L178.68-22.55 178.68-26.7Q178.68-28.5 178-29.25 177.33-30 175.98-30L175.98-30 173.38-30 173.38-19.25Z" opacity="1" transform="matrix(1,0,0,1,0,0)" fill="#2f455d" class="wordmark-text-0" data-fill-palette-color="primary" id="text-0"></path></svg></g></svg></g></svg></g></svg></g><g transform="matrix(1,0,0,1,434.2270987984772,0)"><svg viewBox="0 0 147.39107782263162 95.12727777922083" height="95.12727777922083" width="147.39107782263162"><g><svg version="1.1" xmlns="http://www.w3.org/2000/svg" xmlns:xlink="http://www.w3.org/1999/xlink" x="0" y="0" viewBox="0.017304496826147396 17.548 99.99932160624864 64.54029229380262" enable-background="new 0.018 17.549 99.999 64.541" xml:space="preserve" id="icon-0" width="147.39107782263162" height="95.12727777922083" class="icon-icon-0" data-fill-palette-color="accent"><g fill="#7fc37e" data-fill-palette-color="accent"><path d="M19.052 30.137C23.041 31.158 25.585 29.795 25.585 29.795S47.483 20.123 50.793 18.34C54.104 16.558 57.922 18.34 57.922 18.34S72.267 26.23 74.044 27.251C75.831 28.272 77.862 32.344 75.743 36.503 73.624 40.658 67.345 37.86 67.345 37.86L53.337 30.053C44.085 32.938 11.156 58.484 11.156 58.484L0.293 56.107C-1.406 36.25 5.303 27.251 5.303 27.251S15.063 29.117 19.052 30.137M95.177 27.759L85.588 30.137S81.262 30.733 79.738 30.137C79.738 30.137 81.174 35.371 78.8 38.017S74.64 42.104 70.821 42.104 65.137 40.493 63.693 39.56C62.248 38.627 53.59 33.701 53.59 33.701S41.625 38.623 13.96 60.78C13.96 60.78 10.562 62.987 12.769 66.464 12.769 66.464 14.805 69.345 18.882 66.464 22.954 63.573 31.694 57.636 31.694 57.636S32.632 57.04 33.222 57.636C33.818 58.232 33.481 58.574 33.056 58.993S20.918 67.743 20.918 67.743 19.39 69.52 21.172 71.551C22.954 73.592 23.975 73.758 26.348 72.147 28.725 70.536 39.081 62.48 39.081 62.48S40.438 61.63 41.117 62.558C41.796 63.496 41.625 63.749 41.117 64.257S29.491 72.83 29.491 72.83 27.709 74.607 29.32 76.394 32.801 78.425 35.008 76.814 42.898 70.876 42.898 70.876 44.002 69.773 45.105 70.622C46.209 71.472 44.68 72.741 44.68 72.741L38.333 77.321S36.619 78.854 39.163 80.807C41.712 82.76 41.795 82.252 44.002 80.807S49.265 76.989 49.265 76.989 44.681 67.82 50.622 63.826C50.622 63.826 53 62.137 55.881 62.049 55.881 62.049 55.881 57.293 60.725 55.853 65.558 54.408 67.257 57.04 67.257 57.04S68.79 54.76 71.837 54.921C74.894 55.087 76.651 56.278 76.651 56.278S78.126 54.154 81.602 54.325 88.134 58.905 88.134 58.905L99.765 56.615C99.767 56.615 101.632 38.54 95.177 27.759M85.334 63.153S85.168 59.335 83.469 58.485 78.039 57.128 77.19 60.819L76.653 60.946S75.657 58.485 71.926 58.485C71.926 58.485 68.615 58.231 68.703 62.137L67.765 62.215S66.066 57.811 62.248 59.422 58.596 63.748 59.963 66.805C59.963 66.805 59.299 67.313 59.074 67.313 58.859 67.313 57.072 64.256 54.357 65.614 54.357 65.614 50.622 66.044 52.238 72.83 53.849 79.617 53.761 78.601 53.761 78.601S54.699 82.761 58.351 81.57C61.994 80.379 61.486 77.41 61.32 76.56 61.32 76.56 65.303 79.539 67.432 78.689 69.551 77.839 70.567 76.052 70.225 72.488 70.225 72.488 71.924 75.799 74.981 74.861 78.038 73.933 77.784 70.877 77.95 70.458 77.95 70.458 79.054 72.83 81.602 72.068 84.143 71.297 84.738 68.075 85.334 63.153" fill="#7fc37e" data-fill-palette-color="accent"></path></g></svg></g></svg></g></svg></g><defs></defs></svg><rect width="395.5199999999999" height="64.68976111753777" fill="none" stroke="none" visibility="hidden"></rect></g></svg></g></svg>